<?xml version="1.0" encoding="utf-8"?>
<svg xmlns="http://www.w3.org/2000/svg" viewBox="0 0 500 500">
  <g id="Layer 1" transform="matrix(4.94866, 0, 0, 4.885854, -246.84549, -240.906189)" style="">
    <path id="Forma 2 copy" fill-rule="evenodd" class="s1" d="m92.81 146.79c-20.04-3.25-35.8-19.16-38.81-39.29h10.27c2.82 14.4 14.14 25.72 28.54 28.54zm-38.81-53.33c3.01-20.13 18.77-36.04 38.81-39.29v10.75c-14.4 2.82-25.72 14.14-28.54 28.54zm52.86-39.46c20.58 2.83 36.87 18.96 39.94 39.46h-11.4c-2.82-14.4-14.14-25.72-28.54-28.54zm39.94 53.5c-3.07 20.5-19.36 36.63-39.94 39.45v-10.91c14.4-2.82 25.72-14.14 28.54-28.54z" style="fill: rgb(166, 0, 0); stroke: rgb(0, 0, 0); stroke-miterlimit: 10;"/>
    <path id="Forma 2" fill-rule="evenodd" class="s1" d="m100.82 127.45c-14.68 0-26.55-11.87-26.55-26.55 0-14.68 11.87-26.55 26.55-26.55 14.68 0 26.55 11.87 26.55 26.55 0 14.68-11.87 26.55-26.55 26.55z" style="fill: rgb(166, 0, 0); stroke: rgb(0, 0, 0); stroke-miterlimit: 10;"/>
    <path id="Forma 4" fill-rule="evenodd" class="s2" d="m126.25 72.77c-2.18-2-1.65-6.11 1.18-9.2 1.63-1.78 3.66-2.83 5.51-3.03-0.11-1.21 0.28-2.46 1.17-3.43 1.67-1.84 4.51-1.96 6.35-0.28 1.83 1.68 1.96 4.51 0.28 6.35-0.79 0.86-1.84 1.34-2.92 1.44 0.1 1.95-0.77 4.25-2.51 6.16-2.84 3.09-6.88 3.98-9.06 1.99z" style="fill: rgb(156, 156, 156); stroke: rgb(0, 0, 0); stroke-miterlimit: 10;"/>
    <path id="Forma 4 copy 2" fill-rule="evenodd" class="s3" d="m74.97 72.3c-2.26 1.91-6.27 0.85-8.97-2.35-1.56-1.85-2.34-4-2.29-5.86-1.22-0.05-2.41-0.59-3.26-1.59-1.6-1.9-1.36-4.74 0.54-6.34 1.9-1.6 4.73-1.36 6.34 0.54 0.75 0.89 1.1 1.99 1.05 3.08 1.95 0.15 4.11 1.31 5.78 3.28 2.71 3.21 3.07 7.34 0.81 9.24z" style="fill: rgb(255, 255, 255); stroke: rgb(0, 0, 0); stroke-miterlimit: 10;"/>
    <path id="Forma 4 copy 3" fill-rule="evenodd" class="s3" d="m74.05 126.98c2.25 1.9 1.88 6.03-0.83 9.23-1.55 1.85-3.55 2.98-5.38 3.24 0.15 1.21-0.18 2.48-1.03 3.48-1.61 1.9-4.44 2.14-6.34 0.53-1.89-1.6-2.13-4.43-0.53-6.33 0.76-0.9 1.78-1.42 2.86-1.56-0.18-1.94 0.6-4.27 2.27-6.25 2.71-3.2 6.72-4.25 8.98-2.34z" style="fill: rgb(255, 255, 255); stroke: rgb(0, 0, 0); stroke-miterlimit: 10;"/>
    <path id="Forma 4 copy" fill-rule="evenodd" class="s3" d="m129.03 125.96c2.07-2.11 6.16-1.43 9.15 1.51 1.72 1.69 2.7 3.76 2.82 5.61 1.22-0.06 2.46 0.37 3.4 1.29 1.77 1.74 1.79 4.58 0.05 6.36-1.74 1.77-4.58 1.79-6.36 0.05-0.83-0.82-1.28-1.88-1.34-2.96-1.95 0.03-4.21-0.92-6.06-2.74-2.99-2.94-3.73-7.02-1.66-9.12z" style="fill: rgb(255, 255, 255); stroke: rgb(0, 0, 0); stroke-miterlimit: 10;"/>
  </g>
</svg>